<?xml version="1.0" standalone="no"?>
<!DOCTYPE svg PUBLIC "-//W3C//DTD SVG 20010904//EN"
 "http://www.w3.org/TR/2001/REC-SVG-20010904/DTD/svg10.dtd">
<svg version="1.0" xmlns="http://www.w3.org/2000/svg"
 width="128.000000pt" height="128.000000pt" viewBox="0 0 128.000000 128.000000"
 preserveAspectRatio="xMidYMid meet">

<g transform="translate(0.000000,128.000000) scale(0.100000,-0.100000)"
fill="#000000" stroke="none">
<path d="M870 1187 l-125 -72 0 -225 0 -225 55 0 55 0 3 148 3 147 139 0 139
0 3 -147 3 -148 55 0 55 0 0 225 0 225 -125 72 c-68 40 -127 73 -130 73 -3 0
-62 -33 -130 -73z m246 -38 l104 -61 0 -194 c0 -186 -1 -194 -20 -194 -18 0
-20 8 -22 148 l-3 147 -175 0 -175 0 -3 -147 c-2 -140 -4 -148 -22 -148 -19 0
-20 8 -20 194 l0 194 103 61 c56 33 108 60 115 61 8 0 60 -27 118 -61z"/>
<path d="M920 1120 c0 -18 7 -20 80 -20 73 0 80 2 80 20 0 18 -7 20 -80 20
-73 0 -80 -2 -80 -20z"/>
<path d="M860 1060 c0 -19 7 -20 140 -20 133 0 140 1 140 20 0 19 -7 20 -140
20 -133 0 -140 -1 -140 -20z"/>
<path d="M987 914 c-4 -4 -7 -27 -7 -50 l0 -43 -47 -3 -48 -3 0 -65 0 -65 115
0 115 0 0 115 0 115 -60 3 c-34 2 -64 0 -68 -4z m93 -64 c0 -27 -3 -30 -30
-30 -27 0 -30 3 -30 30 0 27 3 30 30 30 27 0 30 -3 30 -30z m-100 -100 c0 -27
-3 -30 -30 -30 -27 0 -30 3 -30 30 0 27 3 30 30 30 27 0 30 -3 30 -30z m100 0
c0 -27 -3 -30 -30 -30 -27 0 -30 3 -30 30 0 27 3 30 30 30 27 0 30 -3 30 -30z"/>
<path d="M276 700 c-34 -30 -35 -31 -46 -10 -6 11 -16 20 -23 20 -7 0 -43 -28
-80 -61 -67 -61 -68 -62 -51 -86 15 -25 15 -26 -20 -55 -44 -36 -45 -53 -7
-98 26 -31 32 -34 50 -23 24 15 23 18 46 -201 9 -83 18 -153 21 -158 7 -11
301 -10 308 0 10 17 47 395 39 403 -5 5 -84 10 -177 11 l-169 3 107 93 c152
133 140 117 110 158 -33 43 -62 44 -108 4z m72 -23 c8 -9 -18 -38 -110 -117
-156 -136 -152 -134 -167 -117 -9 12 14 36 121 131 73 63 136 116 139 116 4 0
11 -6 17 -13z m-138 -26 c0 -14 -81 -81 -91 -75 -4 2 11 22 34 44 42 40 57 48
57 31z m266 -278 c-3 -16 -10 -80 -16 -143 -6 -63 -13 -127 -16 -142 l-6 -28
-118 0 -118 0 -6 28 c-3 15 -10 79 -16 142 -6 63 -13 127 -16 143 l-6 27 162
0 162 0 -6 -27z"/>
<path d="M214 278 c13 -163 17 -178 39 -178 18 0 19 5 14 58 -4 31 -9 90 -13
130 -6 63 -9 72 -27 72 -19 0 -19 -4 -13 -82z"/>
<path d="M300 230 c0 -123 1 -130 20 -130 19 0 20 7 20 130 0 123 -1 130 -20
130 -19 0 -20 -7 -20 -130z"/>
<path d="M386 288 c-4 -40 -9 -99 -13 -130 -5 -53 -4 -58 14 -58 22 0 26 15
39 178 6 78 6 82 -13 82 -18 0 -21 -9 -27 -72z"/>
<path d="M600 640 c0 -13 7 -20 20 -20 13 0 20 7 20 20 0 13 -7 20 -20 20 -13
0 -20 -7 -20 -20z"/>
<path d="M435 600 l-39 -40 42 -43 42 -42 42 42 42 43 -39 40 c-21 22 -42 40
-45 40 -3 0 -24 -18 -45 -40z m61 -31 c10 -17 -13 -36 -27 -22 -12 12 -4 33
11 33 5 0 12 -5 16 -11z"/>
<path d="M940 600 c0 -13 7 -20 20 -20 13 0 20 7 20 20 0 13 -7 20 -20 20 -13
0 -20 -7 -20 -20z"/>
<path d="M650 525 l-34 -35 37 -38 37 -37 37 37 37 38 -34 35 c-19 19 -37 35
-40 35 -3 0 -21 -16 -40 -35z m50 -35 c0 -5 -4 -10 -10 -10 -5 0 -10 5 -10 10
0 6 5 10 10 10 6 0 10 -4 10 -10z"/>
<path d="M820 540 c0 -13 7 -20 20 -20 13 0 20 7 20 20 0 13 -7 20 -20 20 -13
0 -20 -7 -20 -20z"/>
<path d="M320 500 c0 -13 7 -20 20 -20 13 0 20 7 20 20 0 13 -7 20 -20 20 -13
0 -20 -7 -20 -20z"/>
</g>
</svg>
