<?xml version="1.0" standalone="no"?>
<!DOCTYPE svg PUBLIC "-//W3C//DTD SVG 20010904//EN"
 "http://www.w3.org/TR/2001/REC-SVG-20010904/DTD/svg10.dtd">
<svg version="1.0" xmlns="http://www.w3.org/2000/svg"
 width="225.000000pt" height="225.000000pt" viewBox="0 0 225.000000 225.000000"
 preserveAspectRatio="xMidYMid meet">

<g transform="translate(0.000000,225.000000) scale(0.100000,-0.100000)"
fill="#000000" stroke="none">
<path d="M1619 2140 c-63 -37 -160 -95 -215 -127 l-99 -59 -3 -383 c-1 -275 1
-388 9 -397 15 -18 170 -19 187 -2 9 9 12 82 12 265 l0 253 244 0 244 0 6 -27
c3 -16 4 -130 4 -256 -1 -142 2 -231 9 -238 5 -5 48 -9 99 -7 l89 3 3 395 2
395 -92 55 c-118 68 -185 108 -272 159 -39 23 -79 41 -90 40 -12 0 -73 -32
-137 -69z m179 -24 c34 -21 137 -82 287 -168 l60 -34 3 -342 2 -342 -40 0 -40
0 0 259 c0 227 -2 260 -16 265 -28 11 -574 7 -595 -4 -18 -10 -19 -24 -19
-265 l0 -255 -35 0 -35 0 0 343 0 342 193 112 c105 62 193 112 195 113 1 0 19
-11 40 -24z"/>
<path d="M1620 1965 l0 -36 138 3 137 3 3 33 3 32 -140 0 -141 0 0 -35z"/>
<path d="M1517 1893 c-4 -3 -7 -19 -7 -35 l0 -28 245 0 245 0 0 35 0 35 -238
0 c-131 0 -242 -3 -245 -7z"/>
<path d="M1736 1604 c-12 -11 -16 -35 -16 -89 l0 -74 -82 -3 -83 -3 0 -115 0
-115 199 -3 c153 -2 201 1 208 10 4 7 8 97 8 200 0 221 8 208 -129 208 -68 0
-93 -4 -105 -16z m164 -109 l0 -55 -55 0 -55 0 0 55 0 55 55 0 55 0 0 -55z
m-180 -180 l0 -55 -50 0 -50 0 0 55 0 55 50 0 50 0 0 -55z m180 -1 l0 -55 -52
3 -53 3 -3 53 -3 52 55 0 56 0 0 -56z"/>
<path d="M510 1248 c-84 -68 -77 -67 -111 -30 -16 17 -34 32 -39 32 -10 0
-202 -163 -235 -199 -13 -15 -16 -26 -10 -35 6 -7 18 -25 29 -40 l19 -27 -62
-55 c-79 -72 -81 -96 -15 -172 50 -57 67 -62 101 -31 26 26 29 22 37 -61 17
-189 58 -558 62 -572 5 -17 27 -18 274 -18 168 0 271 4 275 10 13 22 80 681
72 704 -6 14 -45 16 -312 16 -178 0 -305 4 -305 9 0 5 4 11 9 13 4 2 99 82
210 178 135 118 201 181 201 195 0 11 -22 44 -49 73 -60 65 -81 67 -151 10z
m100 -54 l24 -25 -29 -24 c-17 -13 -124 -106 -240 -208 l-210 -184 -22 20
c-13 11 -23 25 -22 31 1 10 457 413 470 415 3 1 16 -10 29 -25z m-237 -64 c-4
-3 -40 -35 -80 -69 -64 -56 -93 -69 -93 -41 0 5 34 38 76 75 62 54 78 64 90
54 8 -7 11 -15 7 -19z m462 -492 c-4 -35 -19 -169 -33 -298 l-27 -235 -212 -3
-211 -2 -6 27 c-6 31 -56 521 -56 553 0 20 7 20 276 20 l276 0 -7 -62z"/>
<path d="M370 599 c0 -34 28 -347 35 -395 5 -28 8 -30 36 -26 l32 5 -7 81 c-3
44 -11 145 -18 224 l-12 142 -33 0 c-30 0 -33 -3 -33 -31z"/>
<path d="M530 405 l0 -225 35 0 35 0 0 225 0 225 -35 0 -35 0 0 -225z"/>
<path d="M690 614 c0 -9 -9 -108 -20 -221 -12 -113 -20 -206 -18 -208 11 -8
68 -13 68 -5 0 16 29 340 35 398 l6 52 -35 0 c-26 0 -36 -4 -36 -16z"/>
<path d="M1060 1125 c0 -32 2 -35 30 -35 28 0 30 3 30 35 0 32 -2 35 -30 35
-28 0 -30 -3 -30 -35z"/>
<path d="M763 1055 c-35 -36 -63 -69 -63 -74 0 -8 135 -141 143 -141 14 0 137
129 137 143 0 22 -115 137 -137 137 -10 0 -46 -30 -80 -65z m107 -50 l24 -25
-22 -23 c-17 -17 -26 -19 -39 -11 -32 20 -39 41 -19 63 24 27 28 26 56 -4z"/>
<path d="M1650 1055 c0 -33 2 -35 35 -35 33 0 35 2 35 35 0 33 -2 35 -35 35
-33 0 -35 -2 -35 -35z"/>
<path d="M1142 927 c-29 -29 -52 -59 -52 -66 0 -17 107 -121 125 -121 6 0 38
27 70 61 l58 61 -59 59 c-32 32 -65 59 -74 59 -9 0 -39 -24 -68 -53z m88 -53
c11 -12 10 -18 -3 -32 -16 -15 -18 -15 -34 0 -13 14 -14 20 -3 32 7 9 16 16
20 16 4 0 13 -7 20 -16z"/>
<path d="M1440 950 c0 -28 3 -30 35 -30 32 0 35 2 35 30 0 28 -3 30 -35 30
-32 0 -35 -2 -35 -30z"/>
<path d="M560 880 c0 -16 3 -31 8 -31 48 -8 57 -3 60 29 3 31 2 32 -32 32 -33
0 -36 -2 -36 -30z"/>
</g>
</svg>
